<?xml version="1.0" encoding="UTF-8" standalone="no"?>
<!-- Created with Inkscape (http://www.inkscape.org/) -->

<svg
   version="1.1"
   id="svg1"
   width="629"
   height="405"
   viewBox="0 0 629 405"
   sodipodi:docname="DALL·E 2023-09-29 22.20.11(1).svg"
   inkscape:version="1.3 (0e150ed6c4, 2023-07-21)"
   inkscape:export-filename="DALL·E 2023-09-29 22.20.11(1).png"
   inkscape:export-xdpi="96"
   inkscape:export-ydpi="96"
   xmlns:inkscape="http://www.inkscape.org/namespaces/inkscape"
   xmlns:sodipodi="http://sodipodi.sourceforge.net/DTD/sodipodi-0.dtd"
   xmlns="http://www.w3.org/2000/svg"
   xmlns:svg="http://www.w3.org/2000/svg">
  <defs
     id="defs1" />
  <sodipodi:namedview
     id="namedview1"
     pagecolor="#ffffff"
     bordercolor="#666666"
     borderopacity="1.0"
     inkscape:showpageshadow="2"
     inkscape:pageopacity="0.0"
     inkscape:pagecheckerboard="0"
     inkscape:deskcolor="#d1d1d1"
     inkscape:zoom="1.9432099"
     inkscape:cx="314.42821"
     inkscape:cy="202.5"
     inkscape:window-width="1920"
     inkscape:window-height="1001"
     inkscape:window-x="-32000"
     inkscape:window-y="-32000"
     inkscape:window-maximized="0"
     inkscape:current-layer="g1" />
  <g
     inkscape:groupmode="layer"
     inkscape:label="Image"
     id="g1">
    <path
       style="fill:#1f1e1d;stroke:none"
       d="m 476.51462,28.17535 -4,15 h -1 l -5,-4 1,7 c -6.58158,-0.05884 -11.91504,-1.991577 -16.89505,-6.46759 -2.30304,-2.069946 -4.18897,-6.969513 -7.30249,-7.780884 -7.67594,-2.000305 -4.3646,9.373169 -2.48841,12.248474 1.74085,2.667877 3.40149,5.075379 4.68595,8 -8.30503,-1.97818 -23.50412,-6.094513 -31.81098,-3.682098 -6.87182,1.995666 -4.64712,12.686096 0.15433,15.682098 10.07449,6.286255 26.99527,-4.196808 34.65665,5 -22.38495,7.558075 -45.6514,3.138458 -68.2855,-1.014648 -11.49063,-2.108399 -30.2872,-5.537232 -40.7145,1.014648 7.81469,2.738037 14.81237,9.09082 8.40048,17.814819 -7.52204,10.234439 -21.08744,12.134919 -25.09955,26.185191 -4.18243,14.6467 12.27273,17.92853 12.46991,30.99924 0.0496,3.2919 -1.51953,5.8258 -4.79013,6.68286 -6.78443,1.77783 -13.37757,-0.88696 -18.66281,5.42593 -4.9292,5.88764 -0.1478,13.79975 -9.3179,17.82021 -4.80735,2.10768 -8.86481,-3.18523 -13,-4.78087 -7.41993,-2.8631 -15.6026,3.18212 -21.38196,-4.52313 -8.39609,-11.19397 14.966,-18.5658 22.38196,-16.62424 l 13,-26 -18,-8 c 12.34194,-11.91074 21.65826,-27.610087 24,-45.00001 l -45,2.985352 -57,-3.985352 v 1 c 9.50277,2.51416 19.91188,2.926148 28.95678,7.108795 8.44159,3.903656 7.02936,9.890015 18.04322,9.891205 v 1 c -8.40271,0.733643 -25.22718,8.584438 -21,19 l -6,-2 c -2.54436,8.00969 -6.08938,17.7733 -2.35108,25.96064 4.09885,8.97699 17.05026,15.75751 13.47685,26.89509 -1.39787,4.35685 -7.55281,3.79197 -11.12577,4.75 -6.68427,1.79226 -14.91135,5.36143 -18.64815,11.40971 -7.63974,12.36549 -5.15598,17.98788 -4.93672,30.98381 0.25656,15.20738 -0.0995,29.5956 1.41511,45.00076 0.56728,5.76988 -1.08546,20.04337 3.02855,24.39737 3.54678,3.75369 15.31613,1.60263 20.14121,1.60263 -5.22013,-18.12033 -13.09403,-35.43799 -8.60726,-55 0.91208,-3.97659 3.60906,-7.22349 5.0517,-11 2.06907,-5.41633 9.35309,-15.4924 2.55556,-19 v -1 c 10.77114,-2.80217 22.41487,7.08222 33,9.33103 20.72329,4.40265 46.29193,0.77145 64,-11.33103 3.86138,10.33809 8.21521,20.72373 8.28549,32 0.0761,12.19849 -0.38181,22.74407 1.20062,35 0.70248,5.44075 0.60892,12.17221 4.4838,16.56635 4.0007,4.53686 10.76956,1.9866 11.80169,-3.57099 2.97656,-16.02749 3.21762,-36.63435 3.2284,-52.99536 6.56845,-2.05408 7.51626,-9.92143 8,-16 h 2 v 13 l 3,-1 c 1.5661,11.39682 6.3135,22.37477 7.68518,34 0.93054,7.88652 -2.55234,15.35869 1.71759,22.90665 3.73645,6.60492 16.65454,12.79846 23.2037,6.6597 4.56113,-4.27527 6.86447,-14.54486 7.39353,-20.56635 5.84222,5.66472 8.6138,13.92758 14.10418,20 8.33209,9.21533 17.55921,12.3172 26.80631,19.55402 16.09167,12.59341 25.27121,27.03525 46.08951,32.44598 14.52392,3.77481 42.1698,4.31809 44,-16 h -1 c -13.88886,24.0188 -50.33905,12.2992 -66.81559,-2.21451 -8.34164,-7.3479 -12.84201,-15.95114 -24.18441,-18.78549 v -1 c 27.55786,-0.89425 30.99984,-42.61078 27,-62 -9.96567,6.11815 -3.96805,29.58386 -8.79554,40 -1.69815,3.66403 -4.45968,9.71454 -9.2145,9.91358 -8.32612,0.34851 -6.99619,-12.83197 -6.98996,-17.91358 0.0107,-8.73424 3.85949,-17.65114 2.77932,-25.96065 -2.98501,-22.96315 -21.51297,-42.07757 -40.11035,-19.02468 -4.05206,5.02284 -7.38824,10.97477 -9.74228,16.98533 -3.00986,7.68505 -4.20346,17.46462 -4.72531,25.66513 -0.40564,6.37448 -8.83255,16.86185 -12.72147,6.31559 -1.94583,-5.27686 3.28595,-13.61664 4.2562,-18.98072 3.07724,-17.01254 0.0442,-42.40091 10.44907,-57 12.36657,-17.35162 33.75381,-25.74466 30.81482,-49 10.12738,-1.57278 20.50415,-9.50036 31.0895,-6.51776 12.42176,3.50006 22.99735,20.72669 36.9105,16.72839 4.3283,-1.24383 9.46566,-4.19271 9.74691,-9.21139 0.40479,-7.22293 -7.39685,-13.90616 -8.92749,-20.99924 -3.16983,-14.68928 1.65125,-29.016642 -3.81942,-44.00001 8.93777,-2.312439 19.46417,-2.563995 24,-12 l -9,-1 v -1 l 11,-4 -7,-2 -7,2 6,-3 v -2 l -13,-3 -6,10 -14,-28 h -2 m -394.000008,30 c 0.09422,11.380249 2.1325,21.770477 -1.165893,33 -3.91684,13.33505 -13.571955,30.9702 -10.834105,45.00001 -7.35917,4.88178 -5,21.19034 -5,29 v 85 c 0,8.67177 -4.10047,26.39246 4.05787,31.95371 16.593534,11.31125 47.051436,8.6101 65.942136,5.63656 7.10742,-1.11877 19.15998,-2.08554 21.56636,-10.60879 4.06105,-14.38404 -0.38729,-33.25333 -0.5625,-47.98148 -0.3956,-33.2527 4.18097,-69.31149 -2.82254,-102 -2.79134,-13.02841 -11.16877,-24.22361 -14.75309,-37.00001 -2.91388,-10.386627 -1.42823,-22.293609 -1.42823,-33 l -55.000008,1 M 189.51462,279.17536 c -0.14725,-4.22192 3.07234,-7.88537 2.13734,-12 -0.9325,-4.1037 -4.38446,-7.18934 -6.02933,-11 -3.31479,-7.67935 -4.07327,-20.02162 -2.41974,-28 1.44645,-6.97918 5.98401,-13.41717 8.56559,-20 6.37889,-16.26571 12.43101,-32.74304 18.69984,-49 3.2303,-8.37713 7.81419,-14.58035 7.99228,-24 0.49008,-25.92271 -37.89629,-31.80689 -30.94598,-61.00001 -10.16712,2.642822 -21.16689,14.448609 -21.9105,24.999998 -1.71905,24.392252 6.15,50.575852 7.82099,75.000012 1.02641,15.00272 -5.96642,28.49956 -6.69367,43 -0.3312,6.60395 3.6653,13.13371 3.78009,20 0.2334,13.96076 -2.44923,46.64795 19.00309,42 M 88.514612,84.17535 c 9.481247,-1.760132 19.386288,-1 28.999998,-1 3.38767,0 8.60906,-0.937866 11.58179,1.027771 6.58658,4.355225 9.75437,21.777259 12.46913,28.972239 12.20798,32.35492 8.94909,70.67536 8.94909,105 v 42 c 0,4.61865 1.49395,12.56433 -1.17902,16.58103 -3.06604,4.60733 -11.96875,4.3497 -16.82098,4.99459 -13.97049,1.85682 -32.05047,2.13785 -45.9105,-0.38504 -4.505027,-0.82003 -11.323616,-1.29742 -14.061726,-5.58102 -2.19351,-3.43158 -1.02778,-9.71008 -1.02778,-13.60956 v -34 -60 c 0,-29.76315 13.115614,-55.1774 16.999998,-84.00001 M 352.51462,204.17536 h -1 l -0.0317,-51.98535 8.03165,-17.01465 c 13.28991,0.0103 9.24026,8.82886 7.19906,19 -3.3818,16.85124 -11.93271,33.1834 -14.19906,50 m 6,-62 -5,10 7,-10 h -2 m 145,28 c -4.26954,10.11807 0.31048,23.76012 7.39044,31.82639 2.59466,2.95616 6.66284,4.73999 8.58252,8.26388 3.45923,6.35004 3.13519,19.94741 2.02704,26.90973 19.61517,8.05998 36.42773,22.40854 44.28704,43 12.19342,31.94687 -0.1347,71.72705 -38.28704,75.82639 -27.29972,2.93326 -54.88358,-11.98596 -78,-24.51773 -31.64542,-17.15552 -63.016,-33.47858 -99,-39.03397 -43.98694,-6.79092 -93.1345,-7.15268 -137,1.10031 -39.83623,7.49491 -84.17431,23.32779 -125.000008,16.16126 -24.463878,-4.29438 -45.412848,-18.2406 -41.793988,-45.53549 1.05133,-7.92949 4.77401,-14.74704 7.79399,-22.00077 -10.17998,4.7473 -16.06134,17.13878 -20.32871,27 -19.81131,45.78089 21.36728,94.7973 65.328708,105.32407 31.096578,7.44623 61.642418,6.62039 92.000008,-4.12345 17.67935,-6.25689 33.41862,-16.63217 50,-24.92285 26.71121,-13.35559 54.90759,-21.91592 85,-22.27392 32.41482,-0.38559 64.40173,7.86615 94,20.85727 17.25131,7.57184 33.48681,18.22705 51,25.02084 6.93594,2.69061 14.05938,2.12576 21,4.16126 15.90185,4.6636 30.11059,11.03747 47,10.95602 38.17584,-0.18411 70.10253,-26.5734 77.88037,-63.99924 7.90069,-38.01709 -13.68451,-83.69749 -46.88037,-103.48225 -7.6026,-4.53115 -16.34949,-10.76186 -25,-12.96065 -7.36255,-1.87141 -13.80103,3.767 -21.0008,2.53549 -16.70059,-2.85658 -18.99039,-22.70347 -18.9992,-36.09259 h -2 m -53,15 v 1 c 6.42224,2.18862 16.7781,10.52332 19,17 h 1 c -0.30683,-14.8621 -6.97229,-16.35353 -20,-18 m -228,3 3,1 v 1 l -4,-1 1,-1 m 294,46 v -2 c -20.51865,1.12409 -12.47129,21.72754 -17.87888,33.94214 -2.33847,5.28211 -9.80569,4.80078 -10.88809,11.09799 -0.95133,5.5347 3.86358,12.42316 9.76233,12.58335 8.3883,0.22775 6.56024,-10.56549 6.03628,-15.62348 -1.09936,-10.61267 -0.84518,-39.54768 12.96836,-40 m -8,10 10,-2 c -4.0702,-2.20793 -9.00519,-3.67499 -10,2 z"
       id="path1" />
  </g>
</svg>
